<?xml version="1.0" encoding="UTF-8" standalone="no"?>
<!-- Created with Inkscape (http://www.inkscape.org/) -->

<svg
   version="1.1"
   id="svg1"
   width="1024"
   height="1024"
   viewBox="0 0 1024 1024"
   sodipodi:docname="icon_22_51_25_clear2.svg"
   inkscape:version="1.4.4 (dcaf3e7, 2026-05-05)"
   xmlns:inkscape="http://www.inkscape.org/namespaces/inkscape"
   xmlns:sodipodi="http://sodipodi.sourceforge.net/DTD/sodipodi-0.dtd"
   xmlns="http://www.w3.org/2000/svg"
   xmlns:svg="http://www.w3.org/2000/svg">
  <defs
     id="defs1" />
  <sodipodi:namedview
     id="namedview1"
     pagecolor="#ffffff"
     bordercolor="#000000"
     borderopacity="0.25"
     inkscape:showpageshadow="2"
     inkscape:pageopacity="0.0"
     inkscape:pagecheckerboard="0"
     inkscape:deskcolor="#d1d1d1"
     inkscape:zoom="0.81982422"
     inkscape:cx="789.80345"
     inkscape:cy="581.22216"
     inkscape:window-width="2404"
     inkscape:window-height="1211"
     inkscape:window-x="933"
     inkscape:window-y="107"
     inkscape:window-maximized="0"
     inkscape:current-layer="g1" />
  <g
     inkscape:groupmode="layer"
     inkscape:label="Image"
     id="g1">
    <g
       id="g4"
       transform="matrix(0.95072063,0,0,0.9681415,-89.314106,-88.130861)"
       style="display:inline;stroke-width:0.999592;stroke-dasharray:none">
      <path
         style="display:inline;fill:#f0d878;fill-opacity:1;stroke-width:0.999592;stroke-dasharray:none"
         d="m 174.75,1148.2943 c 1.2375,-0.2384 3.2625,-0.2384 4.5,0 1.2375,0.2383 0.225,0.4333 -2.25,0.4333 -2.475,0 -3.4875,-0.195 -2.25,-0.4333 z m 670.51375,-0.012 c 1.52006,-0.2298 3.77006,-0.2237 5,0.014 1.22994,0.2373 -0.0137,0.4254 -2.76375,0.4179 -2.75,-0.01 -3.75631,-0.2017 -2.23625,-0.4316 z M 164.5,1146.9533 c -1.3939,-0.6315 -0.7878,-0.7215 2,-0.2971 2.2,0.335 4.1875,0.7744 4.41667,0.9765 0.85918,0.7574 -4.49696,0.1904 -6.41667,-0.6794 z m 689.76903,0.3537 c 0.97297,-0.2535 2.32297,-0.2369 3,0.037 0.67703,0.2739 -0.11903,0.4813 -1.76903,0.461 -1.65,-0.02 -2.20394,-0.2445 -1.23097,-0.4981 z m -694.45653,-1.9901 c 0.72187,-0.2889 1.58437,-0.2534 1.91667,0.079 0.33229,0.3323 -0.25834,0.5687 -1.3125,0.5253 -1.16495,-0.048 -1.4019,-0.285 -0.60417,-0.6042 z M 863.5,1145 c 2.74909,-1.1813 4.32797,-1.1813 2.5,0 -0.825,0.5332 -2.175,0.9446 -3,0.9144 -0.98906,-0.036 -0.81874,-0.3477 0.5,-0.9144 z m -719.75,-5.563 c -3.7125,-1.9055 -6.75,-3.689 -6.75,-3.9634 0,-0.4469 13.90033,6.21 14.91667,7.1436 1.36762,1.2564 -2.32305,-0.1808 -8.16667,-3.1802 z m 727.33333,3.1902 c 1.02905,-0.9208 6.91667,-3.6264 6.91667,-3.1786 0,0.576 -5.54382,3.5514 -6.61701,3.5514 -0.39398,0 -0.52882,-0.1678 -0.29966,-0.3728 z m 9.89122,-5.3336 c 1.361,-0.9865 4.511,-3.2751 7,-5.0859 l 4.52545,-3.2923 -3.65167,3.2923 c -2.00841,1.8108 -5.15841,4.0994 -7,5.0859 -3.21987,1.7247 -3.25339,1.7247 -0.87378,0 z m -748.66879,-4.8666 -2.80576,-2.5729 3.25,2.261 c 1.7875,1.2436 3.25,2.4014 3.25,2.573 0,0.7893 -1.10612,0.1123 -3.69424,-2.2611 z m -8.94761,-6.7956 c -2.67198,-2.4027 -7.02934,-7.2402 -9.68302,-10.75 -2.65367,-3.5098 -3.12845,-4.3564 -1.05507,-1.8814 2.07339,2.475 6.63067,7.3125 10.12729,10.75 7.35183,7.2275 7.67993,8.2382 0.6108,1.8814 z m 779.44692,-7.3814 c 5.51537,-5.9125 12.17273,-12.775 14.79414,-15.25 2.62141,-2.475 -1.70966,2.3625 -9.62459,10.75 -7.91493,8.3875 -14.57229,15.25 -14.79414,15.25 -0.22184,0 4.10922,-4.8375 9.62459,-10.75 z m -795.98223,-12.5 c -2.34597,-4.2311 -5.73141,-11.75 -5.29054,-11.75 0.24216,0 1.99706,3.15 3.89978,7 1.90272,3.85 3.27472,7 3.04889,7 -0.22583,0 -0.97199,-1.0125 -1.65813,-2.25 z M 175,1102.4334 c -15.23402,-3.299 -26.85167,-12.633 -33.77795,-27.1385 L 137.5,1067.5 137.24447,621.52492 c -0.23239,-405.59807 -0.11123,-446.47141 1.3382,-451.45729 4.75082,-16.34225 16.2492,-28.15552 32.20054,-33.08239 C 177.15477,135.01727 181.16129,135 631.42383,135 c 414.80177,0 454.68447,0.13983 459.64467,1.61152 13.3914,3.97323 24.1706,12.9455 30.0838,25.04076 l 3.3477,6.84772 0.2562,319.43828 0.2561,319.43828 -2.8874,6.17026 c -2.8949,6.1862 -6.7565,10.04941 -12.6293,12.63457 -2.3829,1.04889 -22.5298,1.42556 -98.4956,1.84148 -88.6991,0.48563 -95.89167,0.65199 -101,2.33613 -15.16785,5.00061 -27.24923,15.28521 -34.02965,28.96868 -7.00815,14.14304 -6.89625,12.19277 -6.93546,120.8731 -0.0352,97.56472 -0.22518,103.27742 -3.65808,110.00262 -2.67915,5.2485 -8.43246,9.7334 -15.14642,11.8072 -6.37695,1.9696 -9.73696,1.9886 -337.58573,1.9099 C 231.91619,1103.8531 180.51039,1103.6267 175,1102.4334 Z M 306.54983,982.41937 c 8.27374,-5.4052 7.91168,-3.50185 8.2595,-43.41937 0.20231,-23.2176 -0.0614,-36.76535 -0.76235,-39.15726 -1.30512,-4.45387 -6.66623,-9.36538 -11.76965,-10.78261 -4.65695,-1.29325 -65.13747,-1.39291 -70.63897,-0.1164 -4.16408,0.96618 -8.96382,4.92332 -11.22764,9.25661 C 219.27189,900.38024 219,907.90021 219,937.21821 v 36.31752 l 2.53042,3.72385 c 1.39174,2.04812 4.20424,4.6077 6.25,5.68794 3.49003,1.84288 5.91353,1.96682 39.26941,2.00828 L 302.59966,985 Z M 1030.5,532 V 270.5 h -52 -52 l -0.5,89 -0.5,89 -75,0.54755 c -83.085,0.60657 -78.5771,0.25026 -94.17465,7.44377 -17.91663,8.26306 -31.23386,21.52209 -39.77129,39.59743 C 709.07375,511.92597 709.5,504.34787 709.5,621.5 v 105 l 2.26321,7.80932 c 8.08564,27.89986 30.66106,49.99433 58.23679,56.99608 3.575,0.90773 7.4,1.83404 8.5,2.05847 1.1,0.22443 58.25,0.34687 127,0.27209 l 125,-0.13596 z m -211,169.34612 c -4.46767,-2.35854 -8.57214,-6.43902 -10.12316,-10.064 C 808.25464,688.65936 808,675.98952 808,622.77552 c 0,-39.79529 0.38395,-66.62748 0.9833,-68.71728 0.54081,-1.88571 2.4193,-4.91014 4.17442,-6.72097 6.11283,-6.30683 6.91026,-6.38477 62.37879,-6.09673 L 925.5,541.5 v 80.5 80.5 l -51.5,0.21493 c -45.33346,0.1892 -51.85922,0.0253 -54.5,-1.36881 z M 325,666.5 l 0.5,-125 25.5,-0.3094 c 27.9466,-0.33908 34.14233,0.37539 39.0475,4.50282 6.93389,5.83449 6.3986,-3.96716 6.9525,127.30658 l 0.5,118.5 h 47 47 l 0.5,-125 0.5,-125 25.32876,-0.26734 c 27.86715,-0.29413 31.27807,0.16622 36.73545,4.95786 7.50475,6.58926 6.87886,-4.12678 7.43579,127.30948 l 0.5,118 H 609 655.5 V 654 c 0,-130.46197 -0.0941,-137.83271 -1.83892,-144 C 647.15141,486.9903 632.22479,468.38098 612.0539,458.12746 593.46201,448.67661 613.03205,449.5 407,449.5 H 225.5 l -0.25669,170 c -0.14119,93.5 -0.0412,170.56675 0.22223,171.25944 0.37798,0.99395 10.86668,1.20475 49.7567,1 L 324.5,791.5 Z M 930.5,1089 c 4.92707,-4.95 9.1833,-9 9.4583,-9 0.275,0 -3.53123,4.05 -8.4583,9 -4.92707,4.95 -9.1833,9 -9.4583,9 -0.275,0 3.53123,-4.05 8.4583,-9 z m -831.876461,-0.5387 c -0.964979,-2.5147 -0.680311,-3.1635 0.498534,-1.1363 0.58369,1.0038 0.850598,2.0357 0.593129,2.2931 -0.257468,0.2575 -0.748717,-0.2631 -1.091663,-1.1568 z m -1.544592,-4.1295 c -0.04342,-0.6425 -0.337924,-1.9925 -0.654452,-3 -0.547051,-1.7412 -0.518831,-1.7434 0.570774,-0.044 0.630454,0.9832 0.924958,2.3332 0.654453,3 -0.354977,0.875 -0.513794,0.8872 -0.570775,0.044 z m -1.95642,-6.8318 c -0.08241,-1.1 -0.381385,-3.125 -0.66439,-4.5 l -0.514553,-2.5 1.071136,2.4532 c 0.589126,1.3492 0.888101,3.3742 0.664391,4.5 -0.396257,1.994 -0.410611,1.9952 -0.556584,0.047 z M 947.5,1071 c 4.37419,-4.4 8.17808,-8 8.45308,-8 0.275,0 -3.07889,3.6 -7.45308,8 -4.37419,4.4 -8.17808,8 -8.45308,8 -0.275,0 3.07889,-3.6 7.45308,-8 z m 25.03506,-26.75 c 9.16162,-9.7625 25.17942,-26.8454 35.59514,-37.9619 10.4156,-11.11658 19.4704,-20.54128 20.1217,-20.9438 1.2285,-0.75922 -13.5217,15.1326 -50.10315,53.9812 -11.7432,12.471 -21.55825,22.6745 -21.81123,22.6745 -0.25299,0 7.03591,-7.9875 16.19754,-17.75 z m 84.22294,-89.98608 c 15.5419,-16.58567 28.8169,-30.50015 29.5,-30.92106 0.6831,-0.42091 -11.5058,12.82501 -27.0864,29.43538 -15.5807,16.61038 -28.8557,30.52485 -29.5,30.92106 -0.6444,0.39621 11.5445,-12.84971 27.0864,-29.43538 z M 1101.9821,906.25 c 8.453,-8.9375 15.5661,-16.25 15.8071,-16.25 0.596,0 -22.6698,24.63101 -27.3926,29 -2.0809,1.925 3.1326,-3.8125 11.5855,-12.75 z m 29.9624,-32 c 7.9009,-8.3875 14.5717,-15.25 14.824,-15.25 0.5972,0 -22.7068,24.73819 -26.3766,28 -1.547,1.375 3.6516,-4.3625 11.5526,-12.75 z m 18.5752,-20.5 c 2.1471,-2.6125 4.0642,-4.75 4.2602,-4.75 0.7157,0 -3.6283,5.55587 -5.8641,7.5 -1.265,1.1 -0.5433,-0.1375 1.6039,-2.75 z m 10.2207,-15.41339 c 2.0678,-3.93987 3.9024,-7.02212 4.0768,-6.84944 0.4414,0.43681 -4.3127,9.57873 -6.247,12.01283 -0.8742,1.1 0.1024,-1.22353 2.1702,-5.16339 z m 4.4169,-8.83661 c 0,-0.55 0.6014,-2.575 1.3427,-4.5 0.7413,-1.925 1.3618,-2.825 1.3788,-2 0.017,0.825 -0.5872,2.85 -1.3427,4.5 -0.7555,1.65 -1.376,2.55 -1.3788,2 z m 2.9216,-10.08333 c 0.048,-1.16495 0.285,-1.4019 0.6042,-0.60417 0.2889,0.72187 0.2534,1.58438 -0.079,1.91667 -0.3323,0.33229 -0.5687,-0.25834 -0.5253,-1.3125 z m 1,-4 c 0.048,-1.16495 0.285,-1.4019 0.6042,-0.60417 0.2889,0.72187 0.2534,1.58438 -0.079,1.91667 -0.3323,0.33229 -0.5687,-0.25834 -0.5253,-1.3125 z M 1170.1579,171 c 0,-1.375 0.227,-1.9375 0.5044,-1.25 0.2774,0.6875 0.2774,1.8125 0,2.5 -0.2774,0.6875 -0.5044,0.125 -0.5044,-1.25 z M 94.516678,165.77216 c 0.387071,-2.60032 1.347423,-6.42532 2.134116,-8.5 1.533975,-4.04544 1.499629,-3.72911 -0.784774,7.22784 -1.355951,6.50371 -2.254137,7.35051 -1.349342,1.27216 z M 1169.1579,165 c 0,-1.375 0.227,-1.9375 0.5044,-1.25 0.2774,0.6875 0.2774,1.8125 0,2.5 -0.2774,0.6875 -0.5044,0.125 -0.5044,-1.25 z m -2.079,-7.58333 c 0.048,-1.16495 0.285,-1.4019 0.6042,-0.60417 0.2889,0.72187 0.2534,1.58437 -0.079,1.91667 -0.3323,0.33229 -0.5687,-0.25834 -0.5253,-1.3125 z M 98.031451,152.61656 c -0.03699,-1.0391 6.592629,-14.22586 8.591499,-17.08907 0.75738,-1.08487 1.37705,-1.51237 1.37705,-0.95 0,0.56238 -0.4089,1.45001 -0.90867,1.97251 -0.49977,0.5225 -2.73562,4.55 -4.96855,8.95 -2.232934,4.4 -4.074031,7.60245 -4.091329,7.11656 z M 1163.1624,146.45717 c -1.6754,-3.67729 -1.3558,-4.46179 0.4559,-1.11876 0.846,1.56112 1.3511,3.02552 1.1224,3.25422 -0.2287,0.2287 -0.9389,-0.73225 -1.5783,-2.13546 z m -4.7602,-9.70717 c -0.907,-1.7875 -3.1876,-5.5 -5.0679,-8.25 -3.0292,-4.43018 -3.0863,-4.62246 -0.5013,-1.68721 2.96,3.36104 8.7385,13.18721 7.7551,13.18721 -0.2952,0 -1.2789,-1.4625 -2.1859,-3.25 z M 111.15332,128.5 c 3.12955,-4.82757 19.4002,-21.5 20.98189,-21.5 0.42678,0 2.48346,-1.16765 4.57038,-2.59478 5.07807,-3.47259 15.08287,-8.524278 18.79441,-9.489787 7.57571,-1.970722 7.96847,-2.010572 4.63519,-0.470286 -1.85065,0.855169 -4.10065,1.561959 -5,1.570645 -0.89935,0.0087 -5.84777,2.371185 -10.99647,5.249998 -5.14871,2.87882 -10.32522,5.76807 -11.50337,6.42057 -2.32927,1.29002 -18.71613,17.95765 -22.42935,22.81364 -1.26171,1.65 -0.83541,0.75 0.94732,-2 z M 1144.4624,117.91037 c -2.7293,-2.79929 -7.8874,-7.15223 -11.4624,-9.6732 -6.7528,-4.76183 -9.6923,-7.16763 -7,-5.7291 4.4929,2.40065 14.1884,10.01966 18.9658,14.90389 3.0063,3.07342 5.2393,5.58804 4.9624,5.58804 -0.2768,0 -2.7365,-2.29033 -5.4658,-5.08963 z M 1120,100 c -1.925,-1.053893 -3.1402,-1.935031 -2.7003,-1.958084 1.0597,-0.05555 6.7003,2.877234 6.7003,3.483764 0,0.65451 -0.059,0.63219 -4,-1.52568 z m -7,-3 c -0.825,-0.533156 -1.05,-0.969374 -0.5,-0.969374 0.55,0 1.675,0.436218 2.5,0.969374 0.825,0.533156 1.05,0.969374 0.5,0.969374 -0.55,0 -1.675,-0.436218 -2.5,-0.969374 z m -9,-2.562868 c -1.925,-0.728336 -2.825,-1.342871 -2,-1.365633 0.825,-0.02276 3.3,0.607087 5.5,1.399665 2.2,0.792577 3.1,1.407113 2,1.365633 -1.1,-0.04148 -3.575,-0.671328 -5.5,-1.399665 z M 167,92 c 1.375,-0.440352 3.4,-0.80064 4.5,-0.80064 1.58367,0 1.47958,0.166667 -0.5,0.80064 -1.375,0.440352 -3.4,0.80064 -4.5,0.80064 -1.58367,0 -1.47958,-0.166667 0.5,-0.80064 z m 926.5,0 c -2.6947,-0.685689 -2.7456,-0.765267 -0.5,-0.782005 1.375,-0.01025 3.625,0.341653 5,0.782005 1.959,0.62738 2.0672,0.796607 0.5,0.782005 -1.1,-0.01025 -3.35,-0.362151 -5,-0.782005 z"
         id="path7" />
      <path
         style="display:inline;fill:#e0c200;fill-opacity:1;stroke-width:0.999592;stroke-dasharray:none"
         d="m 173.34788,1103.5802 c -14.27453,-3.4625 -25.92392,-12.884 -32.607,-26.371 L 136.5,1068.6508 V 619.07539 169.5 l 3.82241,-7.82241 c 5.07063,-10.37684 12.8447,-18.16825 23.26772,-23.31959 l 7.80614,-3.858 H 631.5 1091.6037 l 7.8062,3.858 c 9.9724,4.92863 18.1177,12.90573 22.7167,22.2475 l 3.3734,6.85234 0.2546,320.42114 0.2546,320.42114 -2.5513,5.57282 c -3.11,6.79302 -4.6667,8.57665 -10.4567,11.9807 L 1108.5,828.5 1013,829.03686 c -87.35029,0.49105 -96.01164,0.68743 -101.49554,2.30125 -14.60544,4.29813 -27.61755,14.97617 -33.88142,27.80389 -7.47181,15.30142 -7.00078,7.70986 -7.59194,122.358 -0.59744,115.866 0.0625,106.7221 -8.32062,115.2846 -3.12171,3.1885 -5.82271,4.7874 -10.558,6.25 -6.2742,1.9379 -11.02011,1.9642 -339.50782,1.8804 -262.82423,-0.067 -334.23217,-0.3489 -338.29678,-1.3348 z m 676.88251,-1.5696 c 6.71396,-2.0738 12.46727,-6.5587 15.14642,-11.8072 3.4329,-6.7252 3.62288,-12.4379 3.65808,-110.00262 0.0392,-108.68033 -0.0727,-106.73006 6.93546,-120.8731 6.78042,-13.68347 18.8618,-23.96807 34.02965,-28.96868 5.10833,-1.68414 12.3009,-1.8505 101,-2.33613 75.9658,-0.41592 96.1127,-0.79259 98.4956,-1.84148 5.8728,-2.58516 9.7344,-6.44837 12.6293,-12.63457 l 2.8874,-6.17026 -0.2561,-319.43828 L 1124.5,168.5 l -3.3477,-6.84772 c -5.9132,-12.09526 -16.6924,-21.06753 -30.0838,-25.04076 C 1086.1083,135.13983 1046.2256,135 631.42383,135 c -450.26254,0 -454.26906,0.0173 -460.64062,1.98524 -15.95134,4.92687 -27.44972,16.74014 -32.20054,33.08239 -1.44943,4.98588 -1.57059,45.85922 -1.3382,451.45729 L 137.5,1067.5 l 3.72205,7.7949 c 4.7291,9.904 12.87898,18.6454 21.20224,22.7411 12.6105,6.2055 -11.66311,5.7976 350.22037,5.8845 327.84877,0.079 331.20878,0.06 337.58573,-1.9099 z M 227.78042,982.94752 c -2.04576,-1.08024 -4.85826,-3.63982 -6.25,-5.68794 L 219,973.53573 v -36.31752 c 0,-29.318 0.27189,-36.83797 1.41072,-39.01787 2.26382,-4.33329 7.06356,-8.29043 11.22764,-9.25661 5.5015,-1.27651 65.98202,-1.17685 70.63897,0.1164 5.10342,1.41723 10.46453,6.32874 11.76965,10.78261 0.7009,2.39191 0.96466,15.93966 0.76235,39.15726 -0.34782,39.91752 0.0142,38.01417 -8.2595,43.41937 L 302.59966,985 267.04983,984.9558 c -33.35588,-0.0415 -35.77938,-0.1654 -39.26941,-2.00828 z m 77.25956,-1.25026 c 2.97633,-1.57392 5.08336,-3.68095 6.65728,-6.65728 2.26957,-4.29181 2.30274,-4.83139 2.30274,-37.45387 0,-18.53514 -0.42951,-34.59691 -0.97612,-36.50284 -1.12919,-3.93728 -4.24719,-7.569 -8.52388,-9.92828 -2.57269,-1.41926 -7.48678,-1.70258 -34.5,-1.98908 -35.71212,-0.37877 -39.97743,0.10955 -44.71827,5.11961 -1.67296,1.76796 -3.54574,4.1974 -4.16174,5.39874 C 220.35568,901.17486 220,913.0895 220,937.20212 v 35.33361 l 2.59956,3.8256 c 4.9905,7.34418 6.43716,7.59183 44.49316,7.61671 33.15823,0.0217 33.64903,-0.008 37.94726,-2.28078 z M 778.5,793.36387 c -1.1,-0.22443 -4.925,-1.15074 -8.5,-2.05847 -27.57573,-7.00175 -50.15115,-29.09622 -58.23679,-56.99608 L 709.5,726.5 v -105 c 0,-117.15213 -0.42625,-109.57403 7.05406,-125.41125 8.53743,-18.07534 21.85466,-31.33437 39.77129,-39.59743 15.59755,-7.19351 11.08965,-6.8372 94.17465,-7.44377 l 75,-0.54755 0.5,-89 0.5,-89 h 52 52 V 532 793.5 l -125,0.13596 c -68.75,0.0748 -125.9,-0.0477 -127,-0.27209 z M 1029.5,532 V 271.5 h -51 -51 l -0.5,89 -0.5,89 -74.5,0.51899 -74.5,0.51898 -8.80747,2.74329 c -4.8441,1.50881 -11.1441,3.91653 -14,5.3505 -17.04891,8.5604 -31.27868,23.86508 -38.26075,41.15095 -6.20751,15.36824 -5.83856,8.45443 -6.20184,116.21729 -0.22362,66.33434 0.0186,101.15886 0.7419,106.64215 4.52523,34.30821 29.60781,61.10999 64.02816,68.41674 7.95785,1.68929 16.34526,1.79279 131.5,1.62274 l 123,-0.18163 z m -211,170.34604 c -4.46758,-2.35837 -8.57211,-6.43888 -10.12316,-10.06392 -2.01303,-4.70475 -2.03708,-135.76619 -0.0258,-140.57986 1.77357,-4.24474 7.66554,-9.33708 12.38238,-10.7019 2.56117,-0.74108 20.08802,-0.99554 54.76658,-0.79511 l 51,0.29475 v 81.5 81.5 l -52.5,0.21484 c -46.24425,0.18925 -52.85747,0.0262 -55.5,-1.3688 z M 925.5,622 v -80.5 l -49.96349,-0.25946 c -55.46853,-0.28804 -56.26596,-0.2101 -62.37879,6.09673 -1.75512,1.81083 -3.63361,4.83526 -4.17442,6.72097 -0.59935,2.0898 -0.9833,28.92199 -0.9833,68.71728 0,70.95858 -0.14277,69.07196 5.62684,74.35567 6.60131,6.04536 4.14726,5.8184 60.37316,5.58374 L 925.5,702.5 Z M 225.46554,790.75944 C 225.20213,790.06675 225.10212,713 225.24331,619.5 L 225.5,449.5 H 407 c 206.03205,0 186.46201,-0.82339 205.0539,8.62746 20.17089,10.25352 35.09751,28.86284 41.60718,51.87254 1.74479,6.16729 1.83892,13.53803 1.83892,144 V 791.5 H 609 562.5 l -0.5,-118 c -0.55693,-131.43626 0.069,-120.72022 -7.43579,-127.30948 -5.45738,-4.79164 -8.8683,-5.25199 -36.73545,-4.95786 L 492.5,541.5 l -0.5,125 -0.5,125 h -47 -47 L 397,673 C 396.4461,541.72626 396.9814,551.52791 390.0475,545.69342 385.14233,541.56599 378.9466,540.85152 351,541.1906 l -25.5,0.3094 -0.5,125 -0.5,125 -49.27776,0.25944 c -38.89002,0.20475 -49.37872,-0.006 -49.7567,-1 z M 324,665.5 l 0.5,-125 27.83385,-0.26597 c 29.80783,-0.28482 33.58816,0.14658 38.6566,4.41139 C 397.9909,550.53591 397.4457,540.63034 398,672 l 0.5,118.5 h 46 46 l 0.5,-125 0.5,-125 26.5,-0.29882 c 29.05311,-0.3276 31.94647,0.0569 37.56766,4.99237 7.50072,6.58572 6.87543,-4.12476 7.43234,127.30645 l 0.5,118 H 609 654.5 V 654 517.5 l -2.76227,-8.80747 c -5.03271,-16.04671 -11.55244,-26.58637 -23.14033,-37.40818 -8.72498,-8.14817 -20.90327,-14.93673 -33.16561,-18.48754 L 587.5,450.5 H 407 226.5 l -0.2567,169 c -0.14119,92.95 -0.0412,169.56683 0.2223,170.25962 0.37793,0.99381 10.66693,1.20483 48.75671,1 L 323.5,790.5 Z m 582,306.0651 c 0,-61.33911 0.34146,-91.34061 1.06133,-93.25 1.43949,-3.81811 6.73496,-9.25163 10.65655,-10.93434 C 920.37069,866.24247 935.86782,866 1005.9679,866 c 62.2154,0 85.0321,0.30125 85.0321,1.12267 0,0.61747 -9.3648,10.85497 -20.8107,22.75 -18.651,19.38292 -85.05941,89.70341 -141.55646,149.89543 C 917.15591,1051.9956 907.36841,1062 906.88284,1062 906.37889,1062 906,1023.1877 906,971.5651 Z"
         id="path6" />
      <path
         style="display:inline;fill:#3a2600;fill-opacity:1;stroke-width:0.999592;stroke-dasharray:none"
         d="m 175.47208,1147.9937 c -15.99842,-1.7086 -33.50091,-8.9035 -47.34429,-19.4623 -8.20476,-6.2581 -17.52325,-17.5821 -22.77717,-27.6794 -2.28216,-4.386 -4.38426,-8.7344 -4.67133,-9.6632 -0.28708,-0.9289 -1.3905,-4.1638 -2.452058,-7.1888 -1.061558,-3.025 -2.446959,-7.644 -3.078669,-10.2644 C 94.292607,1070.1851 94,954.7792 94,620.73528 94,150.29024 93.823668,171.75263 97.819166,155.88131 98.881363,151.66195 104.7321,139.92203 109.71152,132.01846 113.21404,126.45909 130.65216,108 132.40151,108 c 0.51755,0 1.65144,-0.63289 2.51975,-1.40643 2.24414,-1.9992 18.092,-10.18455 21.07874,-10.887075 1.375,-0.323419 6.1,-1.49932 10.5,-2.613113 7.97428,-2.018567 9.46977,-2.025187 465.18462,-2.05923 406.93578,-0.0304 457.98868,0.134286 464.49998,1.498365 14.0465,2.942634 22.9484,6.416197 32.6147,12.726443 18.9357,12.36135 32.0607,30.52288 38.9337,53.8739 l 2.7571,9.36714 0.2656,320.35163 0.2656,320.35163 -3.019,10.44807 c -4.1853,14.48439 -10.46,26.14376 -19.8309,36.84867 -4.5162,5.15912 -39.5627,42.71373 -53.1801,56.98597 -5.7798,6.05772 -28.9435,30.81403 -51.4749,55.01403 -22.5314,24.2 -45.28278,48.5 -50.5586,54 -5.27583,5.5 -22.43354,23.725 -38.12826,40.5 -63.97418,68.3776 -66.34315,70.6609 -80.45138,77.5425 -3.91702,1.9106 -10.66702,4.4826 -15,5.7156 L 851.5,1148.5 517,1148.6222 c -183.975,0.067 -337.66256,-0.2156 -341.52792,-0.6285 z m 675.6804,-44.9591 c 4.73529,-1.4626 7.43629,-3.0615 10.558,-6.25 8.38314,-8.5625 7.72318,0.5814 8.32062,-115.2846 0.59116,-114.64814 0.12013,-107.05658 7.59194,-122.358 6.26387,-12.82772 19.27598,-23.50576 33.88142,-27.80389 5.4839,-1.61382 14.14525,-1.8102 101.49554,-2.30125 l 95.5,-0.53686 4.5012,-2.64636 c 5.79,-3.40405 7.3467,-5.18768 10.4567,-11.9807 l 2.5513,-5.57282 -0.2546,-320.42114 -0.2546,-320.42114 -3.3734,-6.85234 c -4.599,-9.34177 -12.7443,-17.31887 -22.7167,-22.2475 l -7.8062,-3.858 H 631.5 171.39627 l -7.80614,3.858 c -10.42302,5.15134 -18.19709,12.94275 -23.26772,23.31959 L 136.5,169.5 v 449.57539 449.57541 l 4.24088,8.5584 c 6.68308,13.487 18.33247,22.9085 32.607,26.371 4.06461,0.9859 75.47255,1.2677 338.29678,1.3348 328.48771,0.084 333.23362,0.058 339.50782,-1.8804 z M 229.34956,982.07151 c -2.39362,-1.08687 -5.25078,-3.50389 -6.75,-5.71018 L 220,972.53573 v -35.33361 c 0,-24.11262 0.35568,-36.02726 1.11999,-37.51786 0.616,-1.20134 2.48878,-3.63078 4.16174,-5.39874 4.74084,-5.01006 9.00615,-5.49838 44.71827,-5.11961 27.01322,0.2865 31.92731,0.56982 34.5,1.98908 4.27669,2.35928 7.39469,5.991 8.52388,9.92828 0.54661,1.90593 0.97612,17.9677 0.97612,36.50284 0,32.62248 -0.0332,33.16206 -2.30274,37.45387 -1.57392,2.97633 -3.68095,5.08336 -6.65728,6.65728 -4.29823,2.27296 -4.78903,2.30246 -37.94726,2.28078 -30.74399,-0.0201 -33.94469,-0.18178 -37.74316,-1.90653 z M 775,791.05889 c -34.42035,-7.30675 -59.50293,-34.10853 -64.02816,-68.41674 -0.72325,-5.48329 -0.96552,-40.30781 -0.7419,-106.64215 0.36328,-107.76286 -0.006,-100.84905 6.20184,-116.21729 6.98207,-17.28587 21.21184,-32.59055 38.26075,-41.15095 2.8559,-1.43397 9.1559,-3.84169 14,-5.3505 L 777.5,450.53797 852,450.01899 926.5,449.5 l 0.5,-89 0.5,-89 h 51 51 V 532 792.5 l -123,0.18163 c -115.15474,0.17005 -123.54215,0.0666 -131.5,-1.62274 z M 926.5,622 v -81.5 l -51,-0.29475 c -34.67856,-0.20043 -52.20541,0.054 -54.76658,0.79511 -4.71684,1.36482 -10.60881,6.45716 -12.38238,10.7019 C 807.26189,554.30897 807,567.93578 807,622 c 0,72.89086 -0.15162,70.83937 5.62684,76.13119 6.60759,6.05112 4.04796,5.81825 61.37316,5.58365 L 926.5,703.5 Z M 226.4656,789.75962 C 226.20215,789.06683 226.10211,712.45 226.2433,619.5 L 226.5,450.5 H 407 587.5 l 7.93179,2.29681 c 12.26234,3.55081 24.44063,10.33937 33.16561,18.48754 11.58789,10.82181 18.10762,21.36147 23.14033,37.40818 L 654.5,517.5 V 654 790.5 H 609 563.5 l -0.5,-118 c -0.55691,-131.43121 0.0684,-120.72073 -7.43234,-127.30645 -5.62119,-4.93547 -8.51455,-5.31997 -37.56766,-4.99237 l -26.5,0.29882 -0.5,125 -0.5,125 h -46 -46 L 398,672 c -0.5543,-131.36966 -0.009,-121.46409 -7.00955,-127.35458 -5.06844,-4.26481 -8.84877,-4.69621 -38.6566,-4.41139 L 324.5,540.5 l -0.5,125 -0.5,125 -48.27769,0.25962 c -38.08978,0.20483 -48.37878,-0.006 -48.75671,-1 z M 928.63284,1039.7681 C 985.12989,979.57608 1051.5383,909.25559 1070.1893,889.87267 1081.6352,877.97764 1091,867.74014 1091,867.12267 1091,866.30125 1068.1833,866 1005.9679,866 c -70.10008,0 -85.59721,0.24247 -88.25002,1.38076 -3.92159,1.68271 -9.21706,7.11623 -10.65655,10.93434 -1.3257,3.51632 -1.50078,183.6849 -0.17849,183.6849 0.48557,0 10.27307,-10.0044 21.75,-22.2319 z"
         id="path5" />
    </g>
  </g>
</svg>
